<svg width="42" height="59" viewBox="0 0 42 59" fill="none" xmlns="http://www.w3.org/2000/svg">
<mask id="mask0" mask-type="alpha" maskUnits="userSpaceOnUse" x="8" y="38" width="25" height="13">
<path fill-rule="evenodd" clip-rule="evenodd" d="M18.4844 39.5098L17.5381 40.4489L8.6736 49.25C8.43953 49.4824 8.43953 49.8584 8.6736 50.0908C8.79064 50.2074 8.94403 50.2653 9.09702 50.2653C9.2504 50.2653 9.40379 50.2074 9.52083 50.0908L18.3853 41.29L19.3312 40.3509C20.0782 39.609 21.2945 39.6086 22.043 40.3509L22.9889 41.29L31.853 50.0904C31.9704 50.207 32.1234 50.2649 32.2764 50.2649C32.4302 50.2649 32.5832 50.207 32.7002 50.0904C32.9343 49.858 32.9343 49.482 32.7002 49.2497L23.8361 40.4489L22.8899 39.5098C22.2823 38.9066 21.4842 38.6052 20.6865 38.6052C19.8888 38.6052 19.0911 38.9066 18.4844 39.5098Z" fill="white"/>
</mask>
<g mask="url(#mask0)">
<path fill-rule="evenodd" clip-rule="evenodd" d="M18.4844 39.5098L17.5381 40.4489L8.6736 49.25C8.43953 49.4824 8.43953 49.8584 8.6736 50.0908C8.79064 50.2074 8.94403 50.2653 9.09702 50.2653C9.2504 50.2653 9.40379 50.2074 9.52083 50.0908L18.3853 41.29L19.3312 40.3509C20.0782 39.609 21.2945 39.6086 22.043 40.3509L22.9889 41.29L31.853 50.0904C31.9704 50.207 32.1234 50.2649 32.2764 50.2649C32.4302 50.2649 32.5832 50.207 32.7002 50.0904C32.9343 49.858 32.9343 49.482 32.7002 49.2497L23.8361 40.4489L22.8899 39.5098C22.2823 38.9066 21.4842 38.6052 20.6865 38.6052C19.8888 38.6052 19.0911 38.9066 18.4844 39.5098Z" fill="url(#paint0_linear)"/>
</g>
<mask id="mask1" mask-type="alpha" maskUnits="userSpaceOnUse" x="0" y="22" width="17" height="33">
<path fill-rule="evenodd" clip-rule="evenodd" d="M0.176782 22.7571C0.0608066 22.8728 0.00201346 23.0239 0 23.1753V23.1905C0.00201346 23.3424 0.0608066 23.4934 0.176782 23.6091L11.2847 34.6887C11.2871 34.6907 11.2895 34.6907 11.2915 34.6932C11.7816 35.1852 12.0518 35.8371 12.0518 36.5312C12.0518 37.155 11.8279 37.7563 11.4216 38.2282L3.13698 46.4918C3.13698 46.4922 3.13617 46.4922 3.13577 46.4926C1.256 48.3487 0.18242 50.7949 0.082552 53.4162C0.0777197 53.4479 0.0728874 53.48 0.0728874 53.5138V53.817C0.0728874 54.1496 0.343094 54.4195 0.676524 54.4195C1.01036 54.4195 1.28097 54.1496 1.28097 53.817C1.28097 51.3685 2.24139 49.0713 3.98585 47.3493C3.98626 47.3489 3.98666 47.3477 3.98746 47.3469C3.98787 47.3469 3.98827 47.3469 3.98827 47.3469L16.1146 35.2515C16.3505 35.0161 16.3505 34.6349 16.1146 34.3995C15.8786 34.1642 15.496 34.1642 15.26 34.3995L13.2534 36.401C13.2208 35.4318 12.8314 34.5244 12.14 33.8352C12.138 33.8328 12.1343 33.832 12.1319 33.83L1.0313 22.7571C0.913307 22.6395 0.758673 22.5804 0.604039 22.5804C0.449405 22.5804 0.294771 22.6395 0.176782 22.7571Z" fill="white"/>
</mask>
<g mask="url(#mask1)">
<path fill-rule="evenodd" clip-rule="evenodd" d="M0.176782 22.7571C0.0608066 22.8728 0.00201346 23.0239 0 23.1753V23.1905C0.00201346 23.3424 0.0608066 23.4934 0.176782 23.6091L11.2847 34.6887C11.2871 34.6907 11.2895 34.6907 11.2915 34.6932C11.7816 35.1852 12.0518 35.8371 12.0518 36.5312C12.0518 37.155 11.8279 37.7563 11.4216 38.2282L3.13698 46.4918C3.13698 46.4922 3.13617 46.4922 3.13577 46.4926C1.256 48.3487 0.18242 50.7949 0.082552 53.4162C0.0777197 53.4479 0.0728874 53.48 0.0728874 53.5138V53.817C0.0728874 54.1496 0.343094 54.4195 0.676524 54.4195C1.01036 54.4195 1.28097 54.1496 1.28097 53.817C1.28097 51.3685 2.24139 49.0713 3.98585 47.3493C3.98626 47.3489 3.98666 47.3477 3.98746 47.3469C3.98787 47.3469 3.98827 47.3469 3.98827 47.3469L16.1146 35.2515C16.3505 35.0161 16.3505 34.6349 16.1146 34.3995C15.8786 34.1642 15.496 34.1642 15.26 34.3995L13.2534 36.401C13.2208 35.4318 12.8314 34.5244 12.14 33.8352C12.138 33.8328 12.1343 33.832 12.1319 33.83L1.0313 22.7571C0.913307 22.6395 0.758673 22.5804 0.604039 22.5804C0.449405 22.5804 0.294771 22.6395 0.176782 22.7571Z" fill="url(#paint1_linear)"/>
</g>
<mask id="mask2" mask-type="alpha" maskUnits="userSpaceOnUse" x="1" y="0" width="39" height="32">
<path fill-rule="evenodd" clip-rule="evenodd" d="M20.7016 0C14.9812 0 10.9859 4.69824 10.9859 11.4254L10.9855 11.9056C10.9783 14.1023 10.9714 16.7809 11.916 18.5964C11.0148 19.1909 10.4442 20.2114 10.4442 21.3113C10.4442 23.1065 11.9112 24.5668 13.7136 24.5668C13.8657 24.5668 13.9893 24.6898 13.9893 24.8409V25.5888C13.9684 25.7191 13.9087 25.8381 13.8144 25.932C13.6338 26.1118 13.3698 26.1578 13.1455 26.0723L12.1592 25.0898L5.60139 18.562C5.60099 18.5616 5.60099 18.5616 5.60059 18.5612C5.59979 18.5608 5.59979 18.5604 5.59939 18.56C3.86073 16.8464 2.90373 14.5614 2.90373 12.1262C2.90373 11.7953 2.63408 11.5269 2.30144 11.5269C1.9692 11.5269 1.69995 11.7953 1.69995 12.1262V12.4282C1.69995 12.4614 1.70437 12.4934 1.70958 12.5249C1.80909 15.1315 2.87845 17.5636 4.75032 19.4095V19.4099L4.75233 19.4119L11.3081 25.9376L11.9413 26.5681C11.971 26.6448 12.0139 26.7175 12.0761 26.7799C12.18 26.8829 12.2956 26.9669 12.4156 27.0408L16.3917 30.9995C16.5092 31.1165 16.6629 31.1749 16.8174 31.1749C16.9711 31.1749 17.1252 31.1165 17.2427 30.9995C17.4779 30.7653 17.4779 30.3862 17.2427 30.152L14.1891 27.1115C14.3601 27.0268 14.5234 26.9213 14.6658 26.7799C14.921 26.525 15.0868 26.2077 15.159 25.8589C15.179 25.7986 15.1931 25.7347 15.1931 25.6675V24.8409C15.1931 24.0702 14.5932 23.4429 13.8348 23.3805C13.7959 23.3725 13.7554 23.3682 13.7136 23.3682C12.5749 23.3682 11.6484 22.4456 11.6484 21.3113C11.6484 20.4651 12.1836 19.6931 12.9801 19.3911C13.1559 19.3248 13.2899 19.1801 13.3429 19.0011C13.3963 18.8217 13.3621 18.6284 13.2514 18.4769C12.174 17.0118 12.1828 14.0624 12.1889 11.9092L12.1897 11.4254C12.1897 6.49979 14.8536 1.19863 20.7016 1.19863C26.5499 1.19863 29.2131 6.49979 29.2131 11.4254L29.2143 11.9344C29.2207 14.0728 29.2303 17.0014 28.1654 18.457C28.0538 18.61 28.0209 18.8066 28.0775 18.9871C28.1333 19.1677 28.2725 19.3116 28.4511 19.3747C29.2749 19.6656 29.8282 20.4435 29.8282 21.3113C29.8282 22.4456 28.9017 23.3682 27.7625 23.3682C27.7208 23.3682 27.6803 23.3725 27.641 23.3805C26.883 23.4429 26.2835 24.0702 26.2835 24.8409V25.6675C26.2835 25.7335 26.2971 25.795 26.3164 25.8541C26.3878 26.2045 26.5539 26.5234 26.8107 26.7799C26.9528 26.9213 27.1157 27.0268 27.2862 27.1115L24.2331 30.152C23.9979 30.3862 23.9979 30.7653 24.2331 30.9995C24.3506 31.1165 24.5047 31.1749 24.6584 31.1749C24.8125 31.1749 24.9666 31.1165 25.0841 30.9995L29.0602 27.0408C29.1806 26.9672 29.2961 26.8829 29.4001 26.7799C29.4623 26.7175 29.5052 26.6448 29.5349 26.5681L30.1677 25.938L36.3511 19.781V19.7806C38.2225 17.9343 39.2923 15.5031 39.3922 12.8961C39.397 12.8645 39.4019 12.8326 39.4019 12.7994V12.4973C39.4019 12.1665 39.1322 11.898 38.8 11.898C38.4677 11.898 38.1977 12.1665 38.1977 12.4973C38.1977 14.9326 37.2403 17.2176 35.502 18.9312C35.5016 18.9316 35.5016 18.9324 35.5008 18.9328C35.5008 18.9328 35.5004 18.9332 35.5 18.9336L29.3166 25.0906L28.3307 26.0723C28.1068 26.1578 27.8424 26.1114 27.6622 25.9324C27.5679 25.8385 27.5085 25.7195 27.4873 25.59V24.8409C27.4873 24.6898 27.6109 24.5668 27.7625 24.5668C29.5654 24.5668 31.0324 23.1065 31.0324 21.3113C31.0324 20.1818 30.4409 19.1494 29.5076 18.5612C30.4333 16.7573 30.4253 14.1059 30.4181 11.9304L30.4169 11.4254C30.4169 4.69824 26.4219 0 20.7016 0Z" fill="white"/>
</mask>
<g mask="url(#mask2)">
<path fill-rule="evenodd" clip-rule="evenodd" d="M20.7016 0C14.9812 0 10.9859 4.69824 10.9859 11.4254L10.9855 11.9056C10.9783 14.1023 10.9714 16.7809 11.916 18.5964C11.0148 19.1909 10.4442 20.2114 10.4442 21.3113C10.4442 23.1065 11.9112 24.5668 13.7136 24.5668C13.8657 24.5668 13.9893 24.6898 13.9893 24.8409V25.5888C13.9684 25.7191 13.9087 25.8381 13.8144 25.932C13.6338 26.1118 13.3698 26.1578 13.1455 26.0723L12.1592 25.0898L5.60139 18.562C5.60099 18.5616 5.60099 18.5616 5.60059 18.5612C5.59979 18.5608 5.59979 18.5604 5.59939 18.56C3.86073 16.8464 2.90373 14.5614 2.90373 12.1262C2.90373 11.7953 2.63408 11.5269 2.30144 11.5269C1.9692 11.5269 1.69995 11.7953 1.69995 12.1262V12.4282C1.69995 12.4614 1.70437 12.4934 1.70958 12.5249C1.80909 15.1315 2.87845 17.5636 4.75032 19.4095V19.4099L4.75233 19.4119L11.3081 25.9376L11.9413 26.5681C11.971 26.6448 12.0139 26.7175 12.0761 26.7799C12.18 26.8829 12.2956 26.9669 12.4156 27.0408L16.3917 30.9995C16.5092 31.1165 16.6629 31.1749 16.8174 31.1749C16.9711 31.1749 17.1252 31.1165 17.2427 30.9995C17.4779 30.7653 17.4779 30.3862 17.2427 30.152L14.1891 27.1115C14.3601 27.0268 14.5234 26.9213 14.6658 26.7799C14.921 26.525 15.0868 26.2077 15.159 25.8589C15.179 25.7986 15.1931 25.7347 15.1931 25.6675V24.8409C15.1931 24.0702 14.5932 23.4429 13.8348 23.3805C13.7959 23.3725 13.7554 23.3682 13.7136 23.3682C12.5749 23.3682 11.6484 22.4456 11.6484 21.3113C11.6484 20.4651 12.1836 19.6931 12.9801 19.3911C13.1559 19.3248 13.2899 19.1801 13.3429 19.0011C13.3963 18.8217 13.3621 18.6284 13.2514 18.4769C12.174 17.0118 12.1828 14.0624 12.1889 11.9092L12.1897 11.4254C12.1897 6.49979 14.8536 1.19863 20.7016 1.19863C26.5499 1.19863 29.2131 6.49979 29.2131 11.4254L29.2143 11.9344C29.2207 14.0728 29.2303 17.0014 28.1654 18.457C28.0538 18.61 28.0209 18.8066 28.0775 18.9871C28.1333 19.1677 28.2725 19.3116 28.4511 19.3747C29.2749 19.6656 29.8282 20.4435 29.8282 21.3113C29.8282 22.4456 28.9017 23.3682 27.7625 23.3682C27.7208 23.3682 27.6803 23.3725 27.641 23.3805C26.883 23.4429 26.2835 24.0702 26.2835 24.8409V25.6675C26.2835 25.7335 26.2971 25.795 26.3164 25.8541C26.3878 26.2045 26.5539 26.5234 26.8107 26.7799C26.9528 26.9213 27.1157 27.0268 27.2862 27.1115L24.2331 30.152C23.9979 30.3862 23.9979 30.7653 24.2331 30.9995C24.3506 31.1165 24.5047 31.1749 24.6584 31.1749C24.8125 31.1749 24.9666 31.1165 25.0841 30.9995L29.0602 27.0408C29.1806 26.9672 29.2961 26.8829 29.4001 26.7799C29.4623 26.7175 29.5052 26.6448 29.5349 26.5681L30.1677 25.938L36.3511 19.781V19.7806C38.2225 17.9343 39.2923 15.5031 39.3922 12.8961C39.397 12.8645 39.4019 12.8326 39.4019 12.7994V12.4973C39.4019 12.1665 39.1322 11.898 38.8 11.898C38.4677 11.898 38.1977 12.1665 38.1977 12.4973C38.1977 14.9326 37.2403 17.2176 35.502 18.9312C35.5016 18.9316 35.5016 18.9324 35.5008 18.9328C35.5008 18.9328 35.5004 18.9332 35.5 18.9336L29.3166 25.0906L28.3307 26.0723C28.1068 26.1578 27.8424 26.1114 27.6622 25.9324C27.5679 25.8385 27.5085 25.7195 27.4873 25.59V24.8409C27.4873 24.6898 27.6109 24.5668 27.7625 24.5668C29.5654 24.5668 31.0324 23.1065 31.0324 21.3113C31.0324 20.1818 30.4409 19.1494 29.5076 18.5612C30.4333 16.7573 30.4253 14.1059 30.4181 11.9304L30.4169 11.4254C30.4169 4.69824 26.4219 0 20.7016 0Z" fill="url(#paint2_linear)"/>
</g>
<mask id="mask3" mask-type="alpha" maskUnits="userSpaceOnUse" x="13" y="20" width="5" height="3">
<path fill-rule="evenodd" clip-rule="evenodd" d="M13.6122 21.1636C13.5515 21.3703 13.677 21.5851 13.8918 21.6434L17.391 22.5905C17.4278 22.6006 17.4646 22.6052 17.5011 22.6052C17.6775 22.6052 17.8398 22.493 17.8904 22.322C17.9511 22.1157 17.8256 21.9013 17.6107 21.8426L14.112 20.8951C14.0756 20.8854 14.0391 20.8808 14.0027 20.8808C13.8267 20.8808 13.6628 20.9919 13.6122 21.1636Z" fill="white"/>
</mask>
<g mask="url(#mask3)">
<path fill-rule="evenodd" clip-rule="evenodd" d="M13.6122 21.1636C13.5515 21.3703 13.677 21.5851 13.8918 21.6434L17.391 22.5905C17.4278 22.6006 17.4646 22.6052 17.5011 22.6052C17.6775 22.6052 17.8398 22.493 17.8904 22.322C17.9511 22.1157 17.8256 21.9013 17.6107 21.8426L14.112 20.8951C14.0756 20.8854 14.0391 20.8808 14.0027 20.8808C13.8267 20.8808 13.6628 20.9919 13.6122 21.1636Z" fill="url(#paint3_linear)"/>
</g>
<mask id="mask4" mask-type="alpha" maskUnits="userSpaceOnUse" x="23" y="20" width="5" height="3">
<path fill-rule="evenodd" clip-rule="evenodd" d="M27.1034 20.8951L23.6046 21.8426C23.3894 21.9013 23.2639 22.1157 23.3242 22.322C23.3752 22.493 23.5371 22.6052 23.7135 22.6052C23.7499 22.6052 23.7871 22.6006 23.824 22.5905L27.3231 21.6434C27.5376 21.5851 27.663 21.3703 27.6027 21.1636C27.5518 20.9927 27.3891 20.8808 27.2126 20.8808C27.1766 20.8808 27.1398 20.8854 27.1034 20.8951Z" fill="white"/>
</mask>
<g mask="url(#mask4)">
<path fill-rule="evenodd" clip-rule="evenodd" d="M27.1034 20.8951L23.6046 21.8426C23.3894 21.9013 23.2639 22.1157 23.3242 22.322C23.3752 22.493 23.5371 22.6052 23.7135 22.6052C23.7499 22.6052 23.7871 22.6006 23.824 22.5905L27.3231 21.6434C27.5376 21.5851 27.663 21.3703 27.6027 21.1636C27.5518 20.9927 27.3891 20.8808 27.2126 20.8808C27.1766 20.8808 27.1398 20.8854 27.1034 20.8951Z" fill="url(#paint4_linear)"/>
</g>
<mask id="mask5" mask-type="alpha" maskUnits="userSpaceOnUse" x="1" y="9" width="2" height="2">
<path fill-rule="evenodd" clip-rule="evenodd" d="M1.88691 9.64757C1.85716 9.67732 1.83167 9.71131 1.80575 9.74573C1.78493 9.77972 1.76369 9.81796 1.75094 9.8562C1.73394 9.89444 1.72077 9.93268 1.7127 9.97475C1.7042 10.0172 1.69995 10.0597 1.69995 10.098C1.69995 10.2679 1.76794 10.4336 1.88691 10.5488C2.00545 10.6673 2.17159 10.7357 2.33688 10.7357C2.50726 10.7357 2.66872 10.6673 2.7877 10.5488C2.90624 10.4298 2.97465 10.2679 2.97465 10.098C2.97465 10.0597 2.9704 10.0172 2.96148 9.97475C2.95341 9.93268 2.94023 9.89444 2.92834 9.8562C2.91092 9.81796 2.88967 9.77972 2.868 9.74573C2.84293 9.71131 2.81744 9.67732 2.7877 9.64757C2.67085 9.5286 2.50386 9.46912 2.3373 9.46912C2.17032 9.46912 2.00375 9.5286 1.88691 9.64757Z" fill="white"/>
</mask>
<g mask="url(#mask5)">
<path fill-rule="evenodd" clip-rule="evenodd" d="M1.88691 9.64757C1.85716 9.67732 1.83167 9.71131 1.80575 9.74573C1.78493 9.77972 1.76369 9.81796 1.75094 9.8562C1.73394 9.89444 1.72077 9.93268 1.7127 9.97475C1.7042 10.0172 1.69995 10.0597 1.69995 10.098C1.69995 10.2679 1.76794 10.4336 1.88691 10.5488C2.00545 10.6673 2.17159 10.7357 2.33688 10.7357C2.50726 10.7357 2.66872 10.6673 2.7877 10.5488C2.90624 10.4298 2.97465 10.2679 2.97465 10.098C2.97465 10.0597 2.9704 10.0172 2.96148 9.97475C2.95341 9.93268 2.94023 9.89444 2.92834 9.8562C2.91092 9.81796 2.88967 9.77972 2.868 9.74573C2.84293 9.71131 2.81744 9.67732 2.7877 9.64757C2.67085 9.5286 2.50386 9.46912 2.3373 9.46912C2.17032 9.46912 2.00375 9.5286 1.88691 9.64757Z" fill="url(#paint5_linear)"/>
</g>
<mask id="mask6" mask-type="alpha" maskUnits="userSpaceOnUse" x="38" y="9" width="2" height="3">
<path fill-rule="evenodd" clip-rule="evenodd" d="M38.6342 9.96703C38.5917 9.97553 38.5535 9.9887 38.5105 10.0053C38.4765 10.018 38.4387 10.0393 38.4047 10.0609C38.3707 10.086 38.3368 10.1115 38.307 10.1417C38.2773 10.171 38.2518 10.205 38.2263 10.239C38.205 10.273 38.1838 10.3112 38.1668 10.3494C38.1536 10.3877 38.1413 10.4259 38.1328 10.4684C38.1239 10.5113 38.1196 10.5491 38.1196 10.5921C38.1196 10.7616 38.188 10.9231 38.307 11.042C38.3368 11.0718 38.3707 11.0977 38.4047 11.1228C38.4387 11.144 38.4765 11.1657 38.5105 11.1822C38.5535 11.1997 38.5917 11.2082 38.6342 11.2167C38.6724 11.2247 38.7149 11.229 38.7574 11.229C38.9231 11.229 39.0888 11.161 39.2078 11.042C39.3268 10.9231 39.3948 10.7616 39.3948 10.5921C39.3948 10.5491 39.3905 10.5113 39.382 10.4684C39.3731 10.4259 39.3608 10.3877 39.3433 10.3494C39.3314 10.3112 39.3093 10.273 39.2885 10.239C39.263 10.205 39.2371 10.171 39.2078 10.1417C39.1781 10.1115 39.1441 10.086 39.1096 10.0609C39.0757 10.0393 39.0374 10.018 38.9996 10.0053C38.9614 9.9887 38.9231 9.97553 38.8802 9.96703C38.8403 9.95854 38.7986 9.95471 38.7574 9.95471C38.7158 9.95471 38.6745 9.95854 38.6342 9.96703Z" fill="white"/>
</mask>
<g mask="url(#mask6)">
<path fill-rule="evenodd" clip-rule="evenodd" d="M38.6342 9.96703C38.5917 9.97553 38.5535 9.9887 38.5105 10.0053C38.4765 10.018 38.4387 10.0393 38.4047 10.0609C38.3707 10.086 38.3368 10.1115 38.307 10.1417C38.2773 10.171 38.2518 10.205 38.2263 10.239C38.205 10.273 38.1838 10.3112 38.1668 10.3494C38.1536 10.3877 38.1413 10.4259 38.1328 10.4684C38.1239 10.5113 38.1196 10.5491 38.1196 10.5921C38.1196 10.7616 38.188 10.9231 38.307 11.042C38.3368 11.0718 38.3707 11.0977 38.4047 11.1228C38.4387 11.144 38.4765 11.1657 38.5105 11.1822C38.5535 11.1997 38.5917 11.2082 38.6342 11.2167C38.6724 11.2247 38.7149 11.229 38.7574 11.229C38.9231 11.229 39.0888 11.161 39.2078 11.042C39.3268 10.9231 39.3948 10.7616 39.3948 10.5921C39.3948 10.5491 39.3905 10.5113 39.382 10.4684C39.3731 10.4259 39.3608 10.3877 39.3433 10.3494C39.3314 10.3112 39.3093 10.273 39.2885 10.239C39.263 10.205 39.2371 10.171 39.2078 10.1417C39.1781 10.1115 39.1441 10.086 39.1096 10.0609C39.0757 10.0393 39.0374 10.018 38.9996 10.0053C38.9614 9.9887 38.9231 9.97553 38.8802 9.96703C38.8403 9.95854 38.7986 9.95471 38.7574 9.95471C38.7158 9.95471 38.6745 9.95854 38.6342 9.96703Z" fill="url(#paint6_linear)"/>
</g>
<mask id="mask7" mask-type="alpha" maskUnits="userSpaceOnUse" x="1" y="7" width="2" height="2">
<path fill-rule="evenodd" clip-rule="evenodd" d="M1.88691 7.21966C1.85716 7.2494 1.83167 7.28339 1.80575 7.31696C1.78493 7.35095 1.76369 7.38919 1.75094 7.42743C1.73394 7.46567 1.72077 7.50391 1.7127 7.5464C1.7042 7.58889 1.69995 7.62714 1.69995 7.66963C1.69995 7.83959 1.76794 8.00105 1.88691 8.12002C2.00545 8.23942 2.17159 8.30698 2.33688 8.30698C2.50301 8.30698 2.66872 8.23942 2.7877 8.12002C2.90624 8.00105 2.97465 7.83959 2.97465 7.66963C2.97465 7.62714 2.9704 7.58889 2.96148 7.5464C2.95341 7.50391 2.94023 7.46567 2.92834 7.42743C2.91092 7.38919 2.88967 7.35095 2.868 7.31696C2.84293 7.28339 2.81744 7.2494 2.7877 7.21966C2.67085 7.10068 2.50514 7.0412 2.339 7.0412C2.17244 7.0412 2.00588 7.10068 1.88691 7.21966Z" fill="white"/>
</mask>
<g mask="url(#mask7)">
<path fill-rule="evenodd" clip-rule="evenodd" d="M1.88691 7.21966C1.85716 7.2494 1.83167 7.28339 1.80575 7.31696C1.78493 7.35095 1.76369 7.38919 1.75094 7.42743C1.73394 7.46567 1.72077 7.50391 1.7127 7.5464C1.7042 7.58889 1.69995 7.62714 1.69995 7.66963C1.69995 7.83959 1.76794 8.00105 1.88691 8.12002C2.00545 8.23942 2.17159 8.30698 2.33688 8.30698C2.50301 8.30698 2.66872 8.23942 2.7877 8.12002C2.90624 8.00105 2.97465 7.83959 2.97465 7.66963C2.97465 7.62714 2.9704 7.58889 2.96148 7.5464C2.95341 7.50391 2.94023 7.46567 2.92834 7.42743C2.91092 7.38919 2.88967 7.35095 2.868 7.31696C2.84293 7.28339 2.81744 7.2494 2.7877 7.21966C2.67085 7.10068 2.50514 7.0412 2.339 7.0412C2.17244 7.0412 2.00588 7.10068 1.88691 7.21966Z" fill="url(#paint7_linear)"/>
</g>
<mask id="mask8" mask-type="alpha" maskUnits="userSpaceOnUse" x="38" y="7" width="2" height="2">
<path fill-rule="evenodd" clip-rule="evenodd" d="M38.6342 7.53912C38.5917 7.54804 38.5535 7.56036 38.5105 7.57778C38.4765 7.59053 38.4387 7.61177 38.4047 7.63302C38.3707 7.65851 38.3368 7.68358 38.307 7.71333C38.2773 7.74349 38.2518 7.77749 38.2263 7.81148C38.205 7.84547 38.1838 7.88329 38.1668 7.92195C38.1536 7.96019 38.1413 7.99801 38.1328 8.04092C38.1239 8.08341 38.1196 8.12165 38.1196 8.16414C38.1196 8.20663 38.1239 8.2487 38.1328 8.28694C38.1413 8.32943 38.1536 8.36767 38.1668 8.41016C38.1838 8.4484 38.205 8.48239 38.2263 8.51639C38.2518 8.55463 38.2773 8.5848 38.307 8.61454C38.426 8.73351 38.5874 8.80149 38.7574 8.80149C38.9231 8.80149 39.0888 8.73351 39.2078 8.61454C39.2371 8.5848 39.263 8.55463 39.2885 8.51639C39.3093 8.48239 39.3314 8.4484 39.3433 8.41016C39.3608 8.36767 39.3731 8.32943 39.382 8.28694C39.3905 8.2487 39.3948 8.20663 39.3948 8.16414C39.3948 8.12165 39.3905 8.08341 39.382 8.04092C39.3731 7.99801 39.3608 7.96019 39.3433 7.92195C39.3314 7.88329 39.3093 7.84547 39.2885 7.81148C39.263 7.77749 39.2371 7.74349 39.2078 7.71333C39.0884 7.59393 38.9223 7.52679 38.7557 7.52679C38.7149 7.52679 38.6741 7.53104 38.6342 7.53912Z" fill="white"/>
</mask>
<g mask="url(#mask8)">
<path fill-rule="evenodd" clip-rule="evenodd" d="M38.6342 7.53912C38.5917 7.54804 38.5535 7.56036 38.5105 7.57778C38.4765 7.59053 38.4387 7.61177 38.4047 7.63302C38.3707 7.65851 38.3368 7.68358 38.307 7.71333C38.2773 7.74349 38.2518 7.77749 38.2263 7.81148C38.205 7.84547 38.1838 7.88329 38.1668 7.92195C38.1536 7.96019 38.1413 7.99801 38.1328 8.04092C38.1239 8.08341 38.1196 8.12165 38.1196 8.16414C38.1196 8.20663 38.1239 8.2487 38.1328 8.28694C38.1413 8.32943 38.1536 8.36767 38.1668 8.41016C38.1838 8.4484 38.205 8.48239 38.2263 8.51639C38.2518 8.55463 38.2773 8.5848 38.307 8.61454C38.426 8.73351 38.5874 8.80149 38.7574 8.80149C38.9231 8.80149 39.0888 8.73351 39.2078 8.61454C39.2371 8.5848 39.263 8.55463 39.2885 8.51639C39.3093 8.48239 39.3314 8.4484 39.3433 8.41016C39.3608 8.36767 39.3731 8.32943 39.382 8.28694C39.3905 8.2487 39.3948 8.20663 39.3948 8.16414C39.3948 8.12165 39.3905 8.08341 39.382 8.04092C39.3731 7.99801 39.3608 7.96019 39.3433 7.92195C39.3314 7.88329 39.3093 7.84547 39.2885 7.81148C39.263 7.77749 39.2371 7.74349 39.2078 7.71333C39.0884 7.59393 38.9223 7.52679 38.7557 7.52679C38.7149 7.52679 38.6741 7.53104 38.6342 7.53912Z" fill="url(#paint8_linear)"/>
</g>
<mask id="mask9" mask-type="alpha" maskUnits="userSpaceOnUse" x="25" y="22" width="17" height="33">
<path fill-rule="evenodd" clip-rule="evenodd" d="M40.1635 22.7567L29.3134 33.6532C29.2807 33.6784 29.2496 33.7068 29.2217 33.7397C28.6533 34.3999 28.3326 35.2372 28.305 36.1082L26.5152 34.3102C26.2815 34.0754 25.9026 34.0754 25.6692 34.3102C25.4355 34.5449 25.4355 34.9255 25.6692 35.1603L37.7933 47.3371C37.7937 47.3375 37.7937 47.3375 37.7941 47.3375C37.7945 47.3383 37.7945 47.3391 37.7953 47.3395C39.5237 49.0574 40.4751 51.3485 40.4751 53.7903C40.4751 54.122 40.7435 54.3917 41.0734 54.3917C41.4037 54.3917 41.6721 54.122 41.6721 53.7903V53.4875C41.6721 53.4546 41.6673 53.4226 41.6625 53.3905C41.5632 50.7761 40.4994 48.3363 38.6374 46.4854C38.637 46.485 38.6366 46.485 38.6362 46.4842L30.2544 38.0664C29.7654 37.5748 29.4961 36.9218 29.4961 36.2271C29.4961 35.6174 29.7127 35.0289 30.1012 34.5622C30.1012 34.5618 30.1016 34.5618 30.1016 34.5618L41.0096 23.6064C41.2433 23.3716 41.2433 22.9915 41.0096 22.7567C40.8927 22.6393 40.7399 22.5804 40.5867 22.5804C40.4336 22.5804 40.2804 22.6393 40.1635 22.7567Z" fill="white"/>
</mask>
<g mask="url(#mask9)">
<path fill-rule="evenodd" clip-rule="evenodd" d="M40.1635 22.7567L29.3134 33.6532C29.2807 33.6784 29.2496 33.7068 29.2217 33.7397C28.6533 34.3999 28.3326 35.2372 28.305 36.1082L26.5152 34.3102C26.2815 34.0754 25.9026 34.0754 25.6692 34.3102C25.4355 34.5449 25.4355 34.9255 25.6692 35.1603L37.7933 47.3371C37.7937 47.3375 37.7937 47.3375 37.7941 47.3375C37.7945 47.3383 37.7945 47.3391 37.7953 47.3395C39.5237 49.0574 40.4751 51.3485 40.4751 53.7903C40.4751 54.122 40.7435 54.3917 41.0734 54.3917C41.4037 54.3917 41.6721 54.122 41.6721 53.7903V53.4875C41.6721 53.4546 41.6673 53.4226 41.6625 53.3905C41.5632 50.7761 40.4994 48.3363 38.6374 46.4854C38.637 46.485 38.6366 46.485 38.6362 46.4842L30.2544 38.0664C29.7654 37.5748 29.4961 36.9218 29.4961 36.2271C29.4961 35.6174 29.7127 35.0289 30.1012 34.5622C30.1012 34.5618 30.1016 34.5618 30.1016 34.5618L41.0096 23.6064C41.2433 23.3716 41.2433 22.9915 41.0096 22.7567C40.8927 22.6393 40.7399 22.5804 40.5867 22.5804C40.4336 22.5804 40.2804 22.6393 40.1635 22.7567Z" fill="url(#paint9_linear)"/>
</g>
<mask id="mask10" mask-type="alpha" maskUnits="userSpaceOnUse" x="40" y="55" width="2" height="2">
<path fill-rule="evenodd" clip-rule="evenodd" d="M40.8195 55.3689C40.777 55.3766 40.7388 55.3887 40.7001 55.4049C40.6623 55.4171 40.624 55.4373 40.59 55.4575C40.556 55.4822 40.5221 55.5061 40.4923 55.5344C40.4626 55.5628 40.4371 55.5951 40.4116 55.6279C40.3903 55.6599 40.3695 55.6967 40.3563 55.7331C40.3389 55.7695 40.3266 55.806 40.3181 55.846C40.3092 55.8828 40.3049 55.9229 40.3049 55.9634C40.3049 56.1256 40.3733 56.2794 40.4923 56.3927C40.5518 56.449 40.6198 56.4939 40.7001 56.5263C40.777 56.5546 40.8577 56.5704 40.9427 56.5704C41.1127 56.5704 41.2741 56.5097 41.3931 56.3927C41.5121 56.2794 41.5801 56.1256 41.5801 55.9634C41.5801 55.806 41.5121 55.6481 41.3931 55.5344C41.2758 55.4199 41.1093 55.3584 40.9393 55.3584C40.8994 55.3584 40.859 55.3616 40.8195 55.3689Z" fill="white"/>
</mask>
<g mask="url(#mask10)">
<path fill-rule="evenodd" clip-rule="evenodd" d="M40.8195 55.3689C40.777 55.3766 40.7388 55.3887 40.7001 55.4049C40.6623 55.4171 40.624 55.4373 40.59 55.4575C40.556 55.4822 40.5221 55.5061 40.4923 55.5344C40.4626 55.5628 40.4371 55.5951 40.4116 55.6279C40.3903 55.6599 40.3695 55.6967 40.3563 55.7331C40.3389 55.7695 40.3266 55.806 40.3181 55.846C40.3092 55.8828 40.3049 55.9229 40.3049 55.9634C40.3049 56.1256 40.3733 56.2794 40.4923 56.3927C40.5518 56.449 40.6198 56.4939 40.7001 56.5263C40.777 56.5546 40.8577 56.5704 40.9427 56.5704C41.1127 56.5704 41.2741 56.5097 41.3931 56.3927C41.5121 56.2794 41.5801 56.1256 41.5801 55.9634C41.5801 55.806 41.5121 55.6481 41.3931 55.5344C41.2758 55.4199 41.1093 55.3584 40.9393 55.3584C40.8994 55.3584 40.859 55.3616 40.8195 55.3689Z" fill="url(#paint10_linear)"/>
</g>
<mask id="mask11" mask-type="alpha" maskUnits="userSpaceOnUse" x="0" y="55" width="2" height="2">
<path fill-rule="evenodd" clip-rule="evenodd" d="M0.186956 55.3027C0.156788 55.332 0.127045 55.3617 0.106225 55.3962C0.0845551 55.434 0.063735 55.4684 0.046739 55.5066C0.029743 55.5449 0.0208201 55.5869 0.012747 55.6252C0.0038241 55.6677 0 55.7106 0 55.7526C0 55.8381 0.0165711 55.9184 0.046739 55.9953C0.080731 56.0717 0.127045 56.1436 0.186956 56.2035C0.246442 56.263 0.314001 56.3097 0.390483 56.339C0.46739 56.373 0.551945 56.39 0.63735 56.39C0.80731 56.39 0.964523 56.322 1.08774 56.2035C1.14723 56.1436 1.19397 56.0717 1.22371 55.9953C1.2577 55.9184 1.27428 55.8381 1.27428 55.7526C1.27428 55.7106 1.27003 55.6677 1.26195 55.6252C1.25346 55.5869 1.24028 55.5449 1.22371 55.5066C1.20629 55.4684 1.18972 55.434 1.16423 55.3962C1.14298 55.3617 1.11706 55.332 1.08774 55.3027C1.058 55.2729 1.02401 55.2432 0.990017 55.2215C0.956025 55.2007 0.917784 55.1795 0.879543 55.1625C0.841727 55.1455 0.798812 55.1365 0.760571 55.128C0.718931 55.12 0.677291 55.1157 0.636075 55.1157C0.468665 55.1157 0.305928 55.1833 0.186956 55.3027Z" fill="white"/>
</mask>
<g mask="url(#mask11)">
<path fill-rule="evenodd" clip-rule="evenodd" d="M0.186956 55.3027C0.156788 55.332 0.127045 55.3617 0.106225 55.3962C0.0845551 55.434 0.063735 55.4684 0.046739 55.5066C0.029743 55.5449 0.0208201 55.5869 0.012747 55.6252C0.0038241 55.6677 0 55.7106 0 55.7526C0 55.8381 0.0165711 55.9184 0.046739 55.9953C0.080731 56.0717 0.127045 56.1436 0.186956 56.2035C0.246442 56.263 0.314001 56.3097 0.390483 56.339C0.46739 56.373 0.551945 56.39 0.63735 56.39C0.80731 56.39 0.964523 56.322 1.08774 56.2035C1.14723 56.1436 1.19397 56.0717 1.22371 55.9953C1.2577 55.9184 1.27428 55.8381 1.27428 55.7526C1.27428 55.7106 1.27003 55.6677 1.26195 55.6252C1.25346 55.5869 1.24028 55.5449 1.22371 55.5066C1.20629 55.4684 1.18972 55.434 1.16423 55.3962C1.14298 55.3617 1.11706 55.332 1.08774 55.3027C1.058 55.2729 1.02401 55.2432 0.990017 55.2215C0.956025 55.2007 0.917784 55.1795 0.879543 55.1625C0.841727 55.1455 0.798812 55.1365 0.760571 55.128C0.718931 55.12 0.677291 55.1157 0.636075 55.1157C0.468665 55.1157 0.305928 55.1833 0.186956 55.3027Z" fill="url(#paint11_linear)"/>
</g>
<mask id="mask12" mask-type="alpha" maskUnits="userSpaceOnUse" x="40" y="57" width="2" height="2">
<path fill-rule="evenodd" clip-rule="evenodd" d="M40.4923 57.964C40.3733 58.0773 40.3049 58.2315 40.3049 58.393C40.3049 58.5548 40.3733 58.7086 40.4923 58.8223C40.5518 58.8786 40.6198 58.9231 40.7001 58.9555C40.777 58.9842 40.8577 59 40.9427 59C41.1127 59 41.2741 58.9397 41.3931 58.8223C41.5121 58.7086 41.5801 58.5548 41.5801 58.393C41.5801 58.2352 41.5121 58.0773 41.3931 57.964C41.3634 57.9357 41.3332 57.9118 41.2949 57.8871C41.261 57.8669 41.227 57.8471 41.1849 57.8345C41.1467 57.8183 41.1084 57.8066 41.0655 57.7981C41.0256 57.7904 40.9852 57.7864 40.9444 57.7864C40.7783 57.7864 40.6117 57.8507 40.4923 57.964Z" fill="white"/>
</mask>
<g mask="url(#mask12)">
<path fill-rule="evenodd" clip-rule="evenodd" d="M40.4923 57.964C40.3733 58.0773 40.3049 58.2315 40.3049 58.393C40.3049 58.5548 40.3733 58.7086 40.4923 58.8223C40.5518 58.8786 40.6198 58.9231 40.7001 58.9555C40.777 58.9842 40.8577 59 40.9427 59C41.1127 59 41.2741 58.9397 41.3931 58.8223C41.5121 58.7086 41.5801 58.5548 41.5801 58.393C41.5801 58.2352 41.5121 58.0773 41.3931 57.964C41.3634 57.9357 41.3332 57.9118 41.2949 57.8871C41.261 57.8669 41.227 57.8471 41.1849 57.8345C41.1467 57.8183 41.1084 57.8066 41.0655 57.7981C41.0256 57.7904 40.9852 57.7864 40.9444 57.7864C40.7783 57.7864 40.6117 57.8507 40.4923 57.964Z" fill="url(#paint12_linear)"/>
</g>
<mask id="mask13" mask-type="alpha" maskUnits="userSpaceOnUse" x="0" y="57" width="2" height="2">
<path fill-rule="evenodd" clip-rule="evenodd" d="M0.186956 57.7306C0.156788 57.7603 0.127045 57.7901 0.106225 57.8241C0.0845551 57.8623 0.063735 57.8963 0.046739 57.9341C0.029743 57.9724 0.0208201 58.0153 0.012747 58.0535C0.0038241 58.0956 0 58.1385 0 58.1806C0 58.2655 0.0165711 58.3463 0.046739 58.4232C0.080731 58.4992 0.127045 58.5715 0.186956 58.6314C0.246442 58.6904 0.314001 58.7376 0.390483 58.7669C0.46739 58.8009 0.551945 58.8183 0.63735 58.8183C0.80731 58.8183 0.964523 58.7504 1.08774 58.6314C1.14723 58.5715 1.19397 58.4992 1.22371 58.4232C1.2577 58.3463 1.27428 58.2655 1.27428 58.1806C1.27428 58.1385 1.27003 58.0956 1.26195 58.0535C1.25346 58.0153 1.24028 57.9724 1.22371 57.9341C1.20629 57.8963 1.18972 57.8623 1.16423 57.8241C1.14298 57.7901 1.11706 57.7603 1.08774 57.7306C1.058 57.7004 1.02401 57.6707 0.990017 57.6494C0.956025 57.6286 0.917784 57.6074 0.879543 57.5904C0.841727 57.573 0.798812 57.5649 0.760571 57.5564C0.718931 57.5479 0.677291 57.5436 0.636075 57.5436C0.468665 57.5436 0.305928 57.6112 0.186956 57.7306Z" fill="white"/>
</mask>
<g mask="url(#mask13)">
<path fill-rule="evenodd" clip-rule="evenodd" d="M0.186956 57.7306C0.156788 57.7603 0.127045 57.7901 0.106225 57.8241C0.0845551 57.8623 0.063735 57.8963 0.046739 57.9341C0.029743 57.9724 0.0208201 58.0153 0.012747 58.0535C0.0038241 58.0956 0 58.1385 0 58.1806C0 58.2655 0.0165711 58.3463 0.046739 58.4232C0.080731 58.4992 0.127045 58.5715 0.186956 58.6314C0.246442 58.6904 0.314001 58.7376 0.390483 58.7669C0.46739 58.8009 0.551945 58.8183 0.63735 58.8183C0.80731 58.8183 0.964523 58.7504 1.08774 58.6314C1.14723 58.5715 1.19397 58.4992 1.22371 58.4232C1.2577 58.3463 1.27428 58.2655 1.27428 58.1806C1.27428 58.1385 1.27003 58.0956 1.26195 58.0535C1.25346 58.0153 1.24028 57.9724 1.22371 57.9341C1.20629 57.8963 1.18972 57.8623 1.16423 57.8241C1.14298 57.7901 1.11706 57.7603 1.08774 57.7306C1.058 57.7004 1.02401 57.6707 0.990017 57.6494C0.956025 57.6286 0.917784 57.6074 0.879543 57.5904C0.841727 57.573 0.798812 57.5649 0.760571 57.5564C0.718931 57.5479 0.677291 57.5436 0.636075 57.5436C0.468665 57.5436 0.305928 57.6112 0.186956 57.7306Z" fill="url(#paint13_linear)"/>
</g>
<mask id="mask14" mask-type="alpha" maskUnits="userSpaceOnUse" x="6" y="24" width="8" height="8">
<path fill-rule="evenodd" clip-rule="evenodd" d="M6.18874 24.3985C6.03051 24.5572 6.03051 24.8129 6.18874 24.9711L12.4157 31.1973C12.4947 31.2767 12.5983 31.3163 12.7014 31.3163C12.8054 31.3163 12.9086 31.2767 12.9879 31.1973C13.1458 31.0395 13.1458 30.7834 12.9879 30.6255L6.76094 24.3985C6.68162 24.3196 6.57803 24.28 6.47484 24.28C6.37124 24.28 6.26765 24.3196 6.18874 24.3985Z" fill="white"/>
</mask>
<g mask="url(#mask14)">
<path fill-rule="evenodd" clip-rule="evenodd" d="M6.18874 24.3985C6.03051 24.5572 6.03051 24.8129 6.18874 24.9711L12.4157 31.1973C12.4947 31.2767 12.5983 31.3163 12.7014 31.3163C12.8054 31.3163 12.9086 31.2767 12.9879 31.1973C13.1458 31.0395 13.1458 30.7834 12.9879 30.6255L6.76094 24.3985C6.68162 24.3196 6.57803 24.28 6.47484 24.28C6.37124 24.28 6.26765 24.3196 6.18874 24.3985Z" fill="url(#paint14_linear)"/>
</g>
<mask id="mask15" mask-type="alpha" maskUnits="userSpaceOnUse" x="28" y="24" width="8" height="8">
<path fill-rule="evenodd" clip-rule="evenodd" d="M34.7888 24.1559L28.5261 30.4189C28.3679 30.5767 28.3679 30.8329 28.5261 30.9907C28.605 31.07 28.7086 31.1097 28.8122 31.1097C28.9158 31.1097 29.019 31.07 29.0983 30.9907L35.361 24.7281C35.5196 24.5699 35.5196 24.3141 35.361 24.1559C35.2821 24.077 35.1785 24.0373 35.0749 24.0373C34.9713 24.0373 34.8677 24.077 34.7888 24.1559Z" fill="white"/>
</mask>
<g mask="url(#mask15)">
<path fill-rule="evenodd" clip-rule="evenodd" d="M34.7888 24.1559L28.5261 30.4189C28.3679 30.5767 28.3679 30.8329 28.5261 30.9907C28.605 31.07 28.7086 31.1097 28.8122 31.1097C28.9158 31.1097 29.019 31.07 29.0983 30.9907L35.361 24.7281C35.5196 24.5699 35.5196 24.3141 35.361 24.1559C35.2821 24.077 35.1785 24.0373 35.0749 24.0373C34.9713 24.0373 34.8677 24.077 34.7888 24.1559Z" fill="url(#paint15_linear)"/>
</g>
<mask id="mask16" mask-type="alpha" maskUnits="userSpaceOnUse" x="11" y="38" width="6" height="6">
<path fill-rule="evenodd" clip-rule="evenodd" d="M15.4686 38.2345L11.2837 42.4187C11.1307 42.5721 11.1307 42.8203 11.2837 42.9733C11.3605 43.0498 11.4606 43.0882 11.561 43.0882C11.6614 43.0882 11.7618 43.0498 11.8383 42.9733L16.0232 38.7891C16.1762 38.6358 16.1762 38.3875 16.0232 38.2345C15.9463 38.1577 15.8459 38.1196 15.7459 38.1196C15.6455 38.1196 15.5451 38.1577 15.4686 38.2345Z" fill="white"/>
</mask>
<g mask="url(#mask16)">
<path fill-rule="evenodd" clip-rule="evenodd" d="M15.4686 38.2345L11.2837 42.4187C11.1307 42.5721 11.1307 42.8203 11.2837 42.9733C11.3605 43.0498 11.4606 43.0882 11.561 43.0882C11.6614 43.0882 11.7618 43.0498 11.8383 42.9733L16.0232 38.7891C16.1762 38.6358 16.1762 38.3875 16.0232 38.2345C15.9463 38.1577 15.8459 38.1196 15.7459 38.1196C15.6455 38.1196 15.5451 38.1577 15.4686 38.2345Z" fill="url(#paint16_linear)"/>
</g>
<mask id="mask17" mask-type="alpha" maskUnits="userSpaceOnUse" x="25" y="38" width="6" height="6">
<path fill-rule="evenodd" clip-rule="evenodd" d="M25.3662 38.2345C25.2132 38.3875 25.2132 38.6358 25.3662 38.7891L29.5511 42.9733C29.6276 43.0498 29.728 43.0882 29.828 43.0882C29.9288 43.0882 30.0288 43.0498 30.1057 42.9733C30.2587 42.8203 30.2587 42.5721 30.1057 42.4187L25.9208 38.2345C25.8443 38.1577 25.7439 38.1196 25.6435 38.1196C25.5431 38.1196 25.4427 38.1577 25.3662 38.2345Z" fill="white"/>
</mask>
<g mask="url(#mask17)">
<path fill-rule="evenodd" clip-rule="evenodd" d="M25.3662 38.2345C25.2132 38.3875 25.2132 38.6358 25.3662 38.7891L29.5511 42.9733C29.6276 43.0498 29.728 43.0882 29.828 43.0882C29.9288 43.0882 30.0288 43.0498 30.1057 42.9733C30.2587 42.8203 30.2587 42.5721 30.1057 42.4187L25.9208 38.2345C25.8443 38.1577 25.7439 38.1196 25.6435 38.1196C25.5431 38.1196 25.4427 38.1577 25.3662 38.2345Z" fill="url(#paint17_linear)"/>
</g>
<defs>
<linearGradient id="paint0_linear" x1="12.9887" y1="48.7311" x2="18.5657" y2="35.672" gradientUnits="userSpaceOnUse">
<stop offset="0.407986" stop-color="#2041E0"/>
<stop offset="1" stop-color="#4476F2"/>
</linearGradient>
<linearGradient id="paint1_linear" x1="3.00107" y1="50.2302" x2="21.1902" y2="39.8062" gradientUnits="userSpaceOnUse">
<stop offset="0.407986" stop-color="#2041E0"/>
<stop offset="1" stop-color="#4476F2"/>
</linearGradient>
<linearGradient id="paint2_linear" x1="8.64504" y1="27.0729" x2="28.3716" y2="0.353433" gradientUnits="userSpaceOnUse">
<stop offset="0.407986" stop-color="#2041E0"/>
<stop offset="1" stop-color="#4476F2"/>
</linearGradient>
<linearGradient id="paint3_linear" x1="14.3906" y1="22.3783" x2="15.1143" y2="20.3533" gradientUnits="userSpaceOnUse">
<stop offset="0.407986" stop-color="#2041E0"/>
<stop offset="1" stop-color="#4476F2"/>
</linearGradient>
<linearGradient id="paint4_linear" x1="24.1028" y1="22.3783" x2="24.8264" y2="20.3533" gradientUnits="userSpaceOnUse">
<stop offset="0.407986" stop-color="#2041E0"/>
<stop offset="1" stop-color="#4476F2"/>
</linearGradient>
<linearGradient id="paint5_linear" x1="1.93476" y1="10.5691" x2="2.76746" y2="9.63052" gradientUnits="userSpaceOnUse">
<stop offset="0.407986" stop-color="#2041E0"/>
<stop offset="1" stop-color="#4476F2"/>
</linearGradient>
<linearGradient id="paint6_linear" x1="38.3545" y1="11.0613" x2="39.1928" y2="10.1218" gradientUnits="userSpaceOnUse">
<stop offset="0.407986" stop-color="#2041E0"/>
<stop offset="1" stop-color="#4476F2"/>
</linearGradient>
<linearGradient id="paint7_linear" x1="1.93476" y1="8.14043" x2="2.76683" y2="7.20194" gradientUnits="userSpaceOnUse">
<stop offset="0.407986" stop-color="#2041E0"/>
<stop offset="1" stop-color="#4476F2"/>
</linearGradient>
<linearGradient id="paint8_linear" x1="38.3545" y1="8.63377" x2="39.1931" y2="7.69424" gradientUnits="userSpaceOnUse">
<stop offset="0.407986" stop-color="#2041E0"/>
<stop offset="1" stop-color="#4476F2"/>
</linearGradient>
<linearGradient id="paint9_linear" x1="28.4741" y1="50.206" x2="46.591" y2="39.8866" gradientUnits="userSpaceOnUse">
<stop offset="0.407986" stop-color="#2041E0"/>
<stop offset="1" stop-color="#4476F2"/>
</linearGradient>
<linearGradient id="paint10_linear" x1="40.5398" y1="56.4109" x2="41.3316" y2="55.4779" gradientUnits="userSpaceOnUse">
<stop offset="0.407986" stop-color="#2041E0"/>
<stop offset="1" stop-color="#4476F2"/>
</linearGradient>
<linearGradient id="paint11_linear" x1="0.234735" y1="56.2223" x2="1.07307" y2="55.2834" gradientUnits="userSpaceOnUse">
<stop offset="0.407986" stop-color="#2041E0"/>
<stop offset="1" stop-color="#4476F2"/>
</linearGradient>
<linearGradient id="paint12_linear" x1="40.5398" y1="58.8403" x2="41.3328" y2="57.9071" gradientUnits="userSpaceOnUse">
<stop offset="0.407986" stop-color="#2041E0"/>
<stop offset="1" stop-color="#4476F2"/>
</linearGradient>
<linearGradient id="paint13_linear" x1="0.234735" y1="58.6506" x2="1.07339" y2="57.7116" gradientUnits="userSpaceOnUse">
<stop offset="0.407986" stop-color="#2041E0"/>
<stop offset="1" stop-color="#4476F2"/>
</linearGradient>
<linearGradient id="paint14_linear" x1="7.36622" y1="30.3905" x2="11.9954" y2="25.2059" gradientUnits="userSpaceOnUse">
<stop offset="0.407986" stop-color="#2041E0"/>
<stop offset="1" stop-color="#4476F2"/>
</linearGradient>
<linearGradient id="paint15_linear" x1="29.7103" y1="30.1791" x2="34.3632" y2="24.9678" gradientUnits="userSpaceOnUse">
<stop offset="0.407986" stop-color="#2041E0"/>
<stop offset="1" stop-color="#4476F2"/>
</linearGradient>
<linearGradient id="paint16_linear" x1="12.0843" y1="42.4345" x2="15.3531" y2="38.7731" gradientUnits="userSpaceOnUse">
<stop offset="0.407986" stop-color="#2041E0"/>
<stop offset="1" stop-color="#4476F2"/>
</linearGradient>
<linearGradient id="paint17_linear" x1="26.1668" y1="42.4345" x2="29.4356" y2="38.7731" gradientUnits="userSpaceOnUse">
<stop offset="0.407986" stop-color="#2041E0"/>
<stop offset="1" stop-color="#4476F2"/>
</linearGradient>
</defs>
</svg>
