<svg width="10" height="12" viewBox="0 0 10 12" fill="none" xmlns="http://www.w3.org/2000/svg">
<path fill-rule="evenodd" clip-rule="evenodd" d="M3.175 0C2.59555 0 2.11667 0.478885 2.11667 1.05833C2.11464 1.20146 2.18984 1.33459 2.31347 1.40675C2.43709 1.4789 2.58999 1.4789 2.71362 1.40675C2.83724 1.33459 2.91244 1.20146 2.91042 1.05833C2.91042 0.90489 3.02155 0.79375 3.175 0.79375H8.46667C8.62011 0.79375 8.73125 0.90489 8.73125 1.05833V8.46667C8.73125 8.62011 8.62011 8.73125 8.46667 8.73125C8.32354 8.72923 8.19041 8.80442 8.11825 8.92805C8.0461 9.05167 8.0461 9.20457 8.11825 9.3282C8.19041 9.45183 8.32354 9.52702 8.46667 9.525C9.04612 9.525 9.525 9.04611 9.525 8.46667V1.05833C9.525 0.478885 9.04612 0 8.46667 0H3.175ZM1.05833 2.11666C0.478882 2.11666 0 2.59555 0 3.175V10.5833C0 11.1628 0.478882 11.6417 1.05833 11.6417H6.35C6.92945 11.6417 7.40833 11.1628 7.40833 10.5833V3.175C7.40833 2.59555 6.92945 2.11666 6.35 2.11666H1.05833ZM1.05833 2.91041H6.35C6.50345 2.91041 6.61458 3.02155 6.61458 3.175V10.5833C6.61458 10.7368 6.50345 10.8479 6.35 10.8479H1.05833C0.904889 10.8479 0.79375 10.7368 0.79375 10.5833V3.175C0.79375 3.02155 0.904889 2.91041 1.05833 2.91041Z" fill="url(#paint0_linear)"/>
<defs>
<linearGradient id="paint0_linear" x1="0.493431" y1="7.96823" x2="7.7516" y2="3.52621" gradientUnits="userSpaceOnUse">
<stop offset="0.36" stop-color="#FFFFFF"/>
<stop offset="0.53" stop-color="#FFFFFF"/>
<stop offset="0.78" stop-color="#FFFFFF"/>
<stop offset="1" stop-color="#FFFFFF"/>
</linearGradient>
</defs>
</svg>
